<svg width="29" height="16" fill="none" xmlns="http://www.w3.org/2000/svg"><g clip-path="url('#clip0_1_111')"><path d="M28.92.632h-28v14.736h28V.632Z" fill="#B22234"/><path d="M.92 2.332h28Zm28 2.267h-28Zm-28 2.267h28Zm28 2.268h-28ZM.92 11.4h28Zm28 2.267h-28Z" fill="#000"/><path d="M.92 2.332h28m0 2.267h-28m0 2.267h28m0 2.268h-28m0 2.267h28m0 2.267h-28" stroke="#fff" stroke-width="1.134"/><path d="M12.12.632H.92v7.935h11.2V.632Z" fill="#3C3B6E"/><path d="m1.854.972.266.82-.698-.507h.863l-.698.507.267-.82ZM1.854 2.559l.266.82-.698-.507h.863l-.698.507.267-.82ZM1.854 4.146l.266.82-.698-.507h.863l-.698.507.267-.82ZM1.854 5.733l.266.82-.698-.507h.863l-.698.507.267-.82ZM1.854 7.32l.266.82-.698-.507h.863l-.698.507.267-.82ZM2.787 1.765l.266.82-.697-.506h.862l-.698.506.267-.82ZM2.787 3.352l.266.82-.697-.506h.862l-.698.507.267-.82ZM2.787 4.94l.266.82-.697-.507h.862l-.698.507.267-.82ZM2.787 6.526l.266.82-.697-.506h.862l-.698.507.267-.82ZM3.72.972l.267.82-.698-.507h.863l-.698.507.266-.82ZM3.72 2.559l.267.82-.698-.507h.863l-.698.507.266-.82ZM3.72 4.146l.267.82-.698-.507h.863l-.698.507.266-.82ZM3.72 5.733l.267.82-.698-.507h.863l-.698.507.266-.82ZM3.72 7.32l.267.82-.698-.507h.863l-.698.507.266-.82ZM4.654 1.765l.266.82-.698-.506h.863l-.698.506.267-.82ZM4.654 3.352l.266.82-.698-.506h.863l-.698.507.267-.82ZM4.654 4.94l.266.82-.698-.507h.863l-.698.507.267-.82ZM4.654 6.526l.266.82-.698-.506h.863l-.698.507.267-.82ZM5.587.972l.267.82-.698-.507h.862l-.698.507.267-.82ZM5.587 2.559l.267.82-.698-.507h.862l-.698.507.267-.82ZM5.587 4.146l.267.82-.698-.507h.862l-.698.507.267-.82ZM5.587 5.733l.267.82-.698-.507h.862l-.698.507.267-.82ZM5.587 7.32l.267.82-.698-.507h.862l-.698.507.267-.82ZM6.52 1.765l.267.82-.698-.506h.863l-.698.506.266-.82ZM6.52 3.352l.267.82-.698-.506h.863l-.698.507.266-.82ZM6.52 4.94l.267.82-.698-.507h.863l-.698.507.266-.82ZM6.52 6.526l.267.82-.698-.506h.863l-.698.507.266-.82ZM7.454.972l.266.82-.698-.507h.863l-.698.507.267-.82ZM7.454 2.559l.266.82-.698-.507h.863l-.698.507.267-.82ZM7.454 4.146l.266.82-.698-.507h.863l-.698.507.267-.82ZM7.454 5.733l.266.82-.698-.507h.863l-.698.507.267-.82ZM7.454 7.32l.266.82-.698-.507h.863l-.698.507.267-.82ZM8.387 1.765l.267.82-.698-.506h.862l-.697.506.266-.82ZM8.387 3.352l.267.82-.698-.506h.862l-.697.507.266-.82ZM8.387 4.94l.267.82-.698-.507h.862l-.697.507.266-.82ZM8.387 6.526l.267.82-.698-.506h.862l-.697.507.266-.82ZM9.32.972l.267.82-.698-.507h.862l-.697.507.266-.82ZM9.32 2.559l.267.82-.698-.507h.862l-.697.507.266-.82ZM9.32 4.146l.267.82-.698-.507h.862l-.697.507.266-.82ZM9.32 5.733l.267.82-.698-.507h.862l-.697.507.266-.82ZM9.32 7.32l.267.82-.698-.507h.862l-.697.507.266-.82ZM10.254 1.765l.266.82-.698-.506h.863l-.698.506.267-.82ZM10.254 3.352l.266.82-.698-.506h.863l-.698.507.267-.82ZM10.254 4.94l.266.82-.698-.507h.863l-.698.507.267-.82ZM10.254 6.526l.266.82-.698-.506h.863l-.698.507.267-.82ZM11.187.972l.266.82-.697-.507h.862l-.698.507.267-.82ZM11.187 2.559l.266.82-.697-.507h.862l-.698.507.267-.82ZM11.187 4.146l.266.82-.697-.507h.862l-.698.507.267-.82ZM11.187 5.733l.266.82-.697-.507h.862l-.698.507.267-.82ZM11.187 7.32l.266.82-.697-.507h.862l-.698.507.267-.82Z" fill="#fff"/></g><defs><clipPath id="clip0_1_111"><path fill="#fff" transform="translate(.92 .632)" d="M0 0h28v14.737H0z"/></clipPath></defs></svg>