<svg width="114" height="36" fill="none" xmlns="http://www.w3.org/2000/svg"><g clip-path="url('#clip0_15_919')"><path d="M0 35.998V8.262h5.516v3.388h.25c.244-.543.599-1.094 1.063-1.654.473-.57 1.086-1.042 1.839-1.419C9.429 8.192 10.375 8 11.504 8c1.471 0 2.828.386 4.071 1.156 1.244.762 2.237 1.913 2.982 3.454.744 1.532 1.116 3.454 1.116 5.765 0 2.25-.363 4.15-1.09 5.7-.718 1.54-1.699 2.71-2.942 3.506-1.234.788-2.618 1.182-4.15 1.182-1.085 0-2.01-.18-2.77-.538-.754-.36-1.371-.81-1.853-1.353-.481-.551-.849-1.107-1.103-1.668h-.17v10.795H0Zm5.476-17.65c0 1.2.167 2.246.5 3.139.332.893.814 1.589 1.444 2.088.63.49 1.396.735 2.298.735.91 0 1.681-.25 2.312-.748.63-.508 1.107-1.208 1.431-2.102.333-.901.5-1.939.5-3.112 0-1.164-.163-2.189-.487-3.073-.324-.884-.801-1.576-1.431-2.075-.63-.5-1.405-.748-2.325-.748-.91 0-1.68.24-2.311.722-.622.481-1.099 1.164-1.432 2.048-.332.885-.499 1.927-.499 3.126ZM23.403 28.434V8.262h5.423v3.52h.21c.368-1.252.985-2.198 1.852-2.837.867-.648 1.865-.972 2.994-.972.28 0 .583.018.907.053.324.035.608.083.853.144v4.964a7.325 7.325 0 0 0-1.09-.21 9.787 9.787 0 0 0-1.274-.092c-.823 0-1.558.18-2.206.539-.64.35-1.147.84-1.523 1.47-.368.63-.552 1.358-.552 2.18v11.413h-5.594ZM38.535 28.434V8.262h5.594v20.172h-5.594Zm2.81-22.772c-.832 0-1.545-.276-2.14-.828-.587-.56-.88-1.23-.88-2.009 0-.77.293-1.431.88-1.983a3.013 3.013 0 0 1 2.14-.84c.832 0 1.54.28 2.127.84.596.552.893 1.213.893 1.983 0 .78-.297 1.45-.893 2.01-.586.551-1.295.827-2.127.827ZM54.205 16.772v11.662h-5.594V8.262h5.332v3.56h.236a5.628 5.628 0 0 1 2.246-2.785c1.05-.692 2.324-1.038 3.822-1.038 1.4 0 2.622.307 3.663.92 1.042.613 1.852 1.488 2.43 2.626.578 1.13.867 2.478.867 4.045v12.844h-5.595V16.588c.009-1.234-.306-2.197-.945-2.889-.64-.7-1.52-1.05-2.64-1.05-.753 0-1.418.161-1.996.485-.57.324-1.016.797-1.34 1.419-.315.612-.477 1.352-.486 2.22ZM82.346 8.262v4.203H70.198V8.262h12.148Zm-9.39-4.833h5.594v18.806c0 .517.079.92.237 1.209.157.28.376.477.656.59.29.114.622.171.998.171.263 0 .526-.022.788-.065.263-.053.464-.092.604-.119l.88 4.163c-.28.088-.674.189-1.182.302-.508.123-1.125.197-1.851.224-1.349.052-2.53-.127-3.546-.539-1.007-.411-1.79-1.05-2.351-1.917-.56-.867-.836-1.961-.827-3.283V3.429ZM94.888 28.828c-2.04 0-3.805-.433-5.293-1.3-1.48-.876-2.622-2.093-3.428-3.651-.805-1.567-1.208-3.384-1.208-5.45 0-2.084.403-3.905 1.208-5.463.806-1.568 1.948-2.785 3.428-3.651 1.488-.876 3.253-1.314 5.293-1.314 2.039 0 3.8.438 5.279 1.314 1.488.866 2.635 2.083 3.44 3.65.806 1.559 1.209 3.38 1.209 5.464 0 2.066-.403 3.883-1.209 5.45a8.869 8.869 0 0 1-3.44 3.65c-1.48.868-3.24 1.301-5.28 1.301Zm.026-4.334c.928 0 1.703-.262 2.324-.788.622-.534 1.09-1.26 1.405-2.18.324-.92.486-1.965.486-3.139 0-1.173-.162-2.219-.486-3.138-.315-.92-.783-1.646-1.405-2.18-.621-.534-1.396-.801-2.324-.801-.937 0-1.725.267-2.364.8-.63.535-1.108 1.261-1.432 2.18-.315.92-.472 1.966-.472 3.14 0 1.173.157 2.219.472 3.138.324.92.802 1.646 1.432 2.18.639.526 1.427.788 2.364.788Z" fill="#000"/><path d="M109.768 29.699a3.065 3.065 0 0 1-2.233-.92 3.068 3.068 0 0 1-.92-2.232c0-.858.307-1.593.92-2.206a3.066 3.066 0 0 1 2.233-.92c.84 0 1.576.307 2.206.92.63.613.945 1.348.945 2.206a2.96 2.96 0 0 1-.446 1.59c-.289.472-.67.853-1.143 1.142-.472.28-.993.42-1.562.42Z" fill="red"/></g><defs><clipPath id="clip0_15_919"><path fill="#fff" transform="translate(0 .002)" d="M0 0h113.39v35.997H0z"/></clipPath></defs></svg>