<svg width="114" height="37" fill="none" xmlns="http://www.w3.org/2000/svg"><g clip-path="url('#clip0_1_884')" fill="#000"><path d="M0 36.858V9.122h5.516v3.388h.25c.244-.543.599-1.094 1.063-1.655.473-.569 1.086-1.041 1.839-1.418.761-.385 1.707-.578 2.836-.578 1.471 0 2.828.386 4.071 1.156 1.244.762 2.237 1.913 2.982 3.454.744 1.532 1.116 3.454 1.116 5.765 0 2.25-.363 4.15-1.09 5.7-.718 1.54-1.699 2.71-2.942 3.506-1.234.788-2.618 1.182-4.15 1.182-1.085 0-2.01-.18-2.77-.538-.754-.36-1.371-.81-1.853-1.353-.481-.552-.849-1.107-1.103-1.668h-.17v10.795H0Zm5.476-17.65c0 1.2.167 2.246.5 3.139.332.893.814 1.589 1.444 2.088.63.49 1.396.735 2.298.735.91 0 1.681-.25 2.312-.748.63-.508 1.107-1.209 1.431-2.102.333-.901.5-1.939.5-3.112 0-1.164-.163-2.189-.487-3.073-.324-.884-.801-1.576-1.431-2.075-.63-.5-1.405-.749-2.325-.749-.91 0-1.68.241-2.311.723-.622.481-1.099 1.164-1.432 2.048-.332.885-.499 1.927-.499 3.126ZM23.403 29.294V9.122h5.423v3.52h.21c.368-1.252.985-2.198 1.852-2.837.867-.648 1.865-.972 2.994-.972.28 0 .583.018.907.053.324.035.608.083.853.144v4.964a7.31 7.31 0 0 0-1.09-.21 9.787 9.787 0 0 0-1.274-.092c-.823 0-1.558.18-2.206.539-.64.35-1.147.84-1.523 1.47-.368.63-.552 1.357-.552 2.18v11.413h-5.594ZM38.535 29.294V9.122h5.594v20.172h-5.594Zm2.81-22.772c-.832 0-1.545-.276-2.14-.828-.587-.56-.88-1.23-.88-2.01 0-.77.293-1.43.88-1.982a3.014 3.014 0 0 1 2.14-.84c.832 0 1.541.28 2.128.84.595.551.893 1.212.893 1.983 0 .78-.298 1.449-.893 2.01-.587.55-1.296.827-2.128.827ZM54.205 17.632v11.662h-5.594V9.122h5.332v3.559h.236a5.628 5.628 0 0 1 2.246-2.784c1.05-.692 2.324-1.038 3.822-1.038 1.4 0 2.622.307 3.663.92 1.042.613 1.852 1.488 2.43 2.626.578 1.13.867 2.478.867 4.045v12.844h-5.595V17.448c.009-1.234-.306-2.197-.945-2.889-.64-.7-1.52-1.05-2.64-1.05-.753 0-1.418.161-1.996.485-.57.324-1.016.797-1.34 1.419-.315.613-.477 1.352-.486 2.219ZM82.346 9.122v4.202H70.198V9.122h12.148Zm-9.39-4.833h5.594v18.806c0 .517.079.92.237 1.208.157.28.376.477.656.591.29.114.622.171.998.171.263 0 .526-.022.788-.066l.604-.118.88 4.163c-.28.088-.674.189-1.182.302-.508.123-1.125.197-1.851.224-1.349.052-2.53-.127-3.546-.539-1.007-.411-1.79-1.05-2.351-1.917-.56-.867-.836-1.961-.827-3.284V4.29Z"/></g><defs><clipPath id="clip0_1_884"><path fill="#fff" transform="translate(0 .861)" d="M0 0h113.39v35.997H0z"/></clipPath></defs></svg>