<svg width="21" height="21" fill="none" xmlns="http://www.w3.org/2000/svg"><g clip-path="url('#clip0_1_635')"><mask id="mask0_1_635" style="mask-type:luminance" maskUnits="userSpaceOnUse" x="0" y="0" width="21" height="21"><path d="M20.66.7h-20v20h20V.7Z" fill="#fff"/></mask><g mask="url('#mask0_1_635')"><mask id="mask1_1_635" style="mask-type:luminance" maskUnits="userSpaceOnUse" x="0" y="0" width="21" height="21"><path d="M20.66.7h-20v20h20V.7Z" fill="#fff"/></mask><g mask="url('#mask1_1_635')"><path d="m5.092 12.787-.696 2.598-2.544.054A9.956 9.956 0 0 1 .66 10.7a9.95 9.95 0 0 1 1.118-4.599l2.266.416.992 2.251a5.945 5.945 0 0 0-.32 1.932c0 .734.132 1.438.376 2.087Z" fill="#FBBB00"/><path d="M20.485 8.832a10.019 10.019 0 0 1-.044 3.956 9.997 9.997 0 0 1-3.521 5.71l-2.854-.146-.404-2.52a5.96 5.96 0 0 0 2.565-3.044h-5.348V8.832h9.606Z" fill="#518EF8"/><path d="M16.92 18.498a9.957 9.957 0 0 1-6.26 2.202 9.999 9.999 0 0 1-8.808-5.26l3.24-2.654a5.946 5.946 0 0 0 8.57 3.045l3.258 2.667Z" fill="#28B446"/><path d="m17.043 3.002-3.24 2.653a5.948 5.948 0 0 0-8.767 3.114L1.78 6.1a9.997 9.997 0 0 1 8.88-5.4c2.427 0 4.652.863 6.384 2.301Z" fill="#F14336"/></g></g></g><defs><clipPath id="clip0_1_635"><path fill="#fff" transform="translate(.66 .7)" d="M0 0h20v20H0z"/></clipPath></defs></svg>