<svg width="21" height="21" fill="none" xmlns="http://www.w3.org/2000/svg"><g clip-path="url('#clip0_1_699')"><mask id="mask0_1_699" style="mask-type:luminance" maskUnits="userSpaceOnUse" x="0" y="0" width="21" height="21"><path d="M20.66.27h-20v20h20v-20Z" fill="#fff"/></mask><g mask="url('#mask0_1_699')"><mask id="mask1_1_699" style="mask-type:luminance" maskUnits="userSpaceOnUse" x="0" y="0" width="21" height="21"><path d="M20.66.27h-20v20h20v-20Z" fill="#fff"/></mask><g mask="url('#mask1_1_699')"><path d="m5.092 12.357-.696 2.598-2.544.054A9.956 9.956 0 0 1 .66 10.27a9.95 9.95 0 0 1 1.118-4.599l2.266.416.992 2.251a5.945 5.945 0 0 0-.32 1.932c0 .734.133 1.438.376 2.087Z" fill="#FBBB00"/><path d="M20.485 8.402a10.02 10.02 0 0 1-.044 3.956 9.998 9.998 0 0 1-3.52 5.71l-2.855-.146-.403-2.52a5.96 5.96 0 0 0 2.564-3.044H10.88V8.402h9.605Z" fill="#518EF8"/><path d="M16.92 18.068a9.957 9.957 0 0 1-6.26 2.202 9.999 9.999 0 0 1-8.808-5.26l3.24-2.654a5.946 5.946 0 0 0 8.57 3.045l3.258 2.667Z" fill="#28B446"/><path d="m17.043 2.572-3.24 2.653a5.948 5.948 0 0 0-8.767 3.114L1.78 5.67a9.997 9.997 0 0 1 8.88-5.4c2.427 0 4.652.864 6.384 2.301Z" fill="#F14336"/></g></g></g><defs><clipPath id="clip0_1_699"><path fill="#fff" transform="translate(.66 .27)" d="M0 0h20v20H0z"/></clipPath></defs></svg>