<svg width="18" height="18" fill="none" xmlns="http://www.w3.org/2000/svg"><g clip-path="url('#clip0_1_911')"><path fill-rule="evenodd" clip-rule="evenodd" d="M9 6.55a2.4 2.4 0 1 0 0 4.799 2.4 2.4 0 0 0 0-4.8Zm0-1.6a4 4 0 1 1 0 8 4 4 0 0 1 0-8Zm4.2-1.2a1 1 0 1 1 0 2 1 1 0 0 1 0-2Zm-7.72-1.2A2.88 2.88 0 0 0 2.6 5.43v7.04a2.878 2.878 0 0 0 2.88 2.88h7.04a2.88 2.88 0 0 0 2.88-2.88V5.43a2.878 2.878 0 0 0-2.88-2.88H5.48Zm.16-1.6h6.72C14.92.95 17 3.03 17 5.59v6.72a4.64 4.64 0 0 1-4.64 4.64H5.64C3.08 16.95 1 14.87 1 12.31V5.59A4.64 4.64 0 0 1 5.64.95Z" fill="#0E1320"/></g><defs><clipPath id="clip0_1_911"><path fill="#fff" transform="translate(.5 .36)" d="M0 0h17v17H0z"/></clipPath></defs></svg>