<svg width="25" height="25" fill="none" xmlns="http://www.w3.org/2000/svg"><g clip-path="url('#clip0_1_88')" fill="#000"><path d="m21.46 12.33-9-9c-.36-.36-.86-.58-1.41-.58h-7c-1.1 0-2 .9-2 2v7c0 .55.22 1.05.59 1.42l9 9c.36.36.86.58 1.41.58.55 0 1.05-.22 1.41-.59l7-7c.37-.36.59-.86.59-1.41 0-.55-.23-1.06-.59-1.42Zm-8.41 8.43-9-9.01v-7h7v-.01l9 9-7 7.02Z"/><path d="M6.55 8.75a1.5 1.5 0 1 0 0-3 1.5 1.5 0 0 0 0 3Z"/></g><defs><clipPath id="clip0_1_88"><path fill="#fff" transform="translate(.05 .75)" d="M0 0h24v24H0z"/></clipPath></defs></svg>